<svg xmlns="http://www.w3.org/2000/svg" viewBox="0 0 32 32" width="32" height="32">
  <defs>
    <linearGradient id="favGrad" x1="0%" y1="0%" x2="100%" y2="100%">
      <stop offset="0%" stop-color="#6C3BF2"/>
      <stop offset="100%" stop-color="#00D4FF"/>
    </linearGradient>
  </defs>
  <circle cx="16" cy="16" r="15" fill="#1A0A2E"/>
  <ellipse cx="16" cy="16" rx="11" ry="4" fill="none" stroke="#6C3BF2" stroke-width="1.5" transform="rotate(-30 16 16)" opacity="0.6"/>
  <ellipse cx="16" cy="16" rx="11" ry="4" fill="none" stroke="url(#favGrad)" stroke-width="1.8" transform="rotate(30 16 16)"/>
  <g transform="translate(16, 16) scale(0.0205) translate(-510, -380)" fill="url(#favGrad)">
    <path d="M0 0 C2.96333712 0.19089374 5.9268424 0.37865038 8.890625 0.5625 C9.58788696 0.60624756 10.28514893 0.64999512 11.00354004 0.69506836 C14.75388851 0.91927275 18.47776365 1.04157515 22.234375 1 C23.39453125 1 24.5546875 1 25.75 1 C26.08 1.33 26.41 1.66 26.75 2 C29.12688151 2.40602589 31.48515942 2.7546484 33.875 3.0625 C35.17695312 3.23910156 36.47890625 3.41570312 37.8203125 3.59765625 C41.49870773 3.97427127 45.05598965 4.07196124 48.75 4 C48.75 4.66 48.75 5.32 48.75 6 C49.32250488 6.03665771 49.89500977 6.07331543 50.48486328 6.11108398 C57.74320573 6.69373918 64.58032823 8.26802392 71.625 10.0625 C73.82968031 10.62004936 76.03537383 11.17361164 78.2421875 11.72265625 C79.20495605 11.96765869 80.16772461 12.21266113 81.15966797 12.46508789 C83.96206017 13.13482418 83.96206017 13.13482418 87.75 13 C87.75 13.66 87.75 14.32 87.75 15 C88.3493335 15.10449463 88.94866699 15.20898926 89.56616211 15.31665039 C96.02736265 16.51613224 102.11798392 18.25741365 108.3125 20.4375 C109.30064697 20.78458008 110.28879395 21.13166016 111.30688477 21.48925781 C130.66320363 28.44274959 149.11110773 37.44258994 167.37597656 46.84594727 C169.75518002 48.0509851 169.75518002 48.0509851 172.36621094 48.96459961 C174.82347214 50.03191267 175.94798483 51.07044141 177.75 53 C178.97075355 53.82152186 180.21961198 54.60225992 181.48828125 55.34765625 C182.21869629 55.78263428 182.94911133 56.2176123 183.70166016 56.66577148 C184.4807373 57.12669189 185.25981445 57.5876123 186.0625 58.0625 C194.26783716 63.0019132 202.0630249 68.2962855 209.75 74 C211.07154475 74.96884526 212.39316193 75.93759173 213.71484375 76.90625 C225.1890521 85.36525788 236.01788313 94.39609156 246.53125 104.02734375 C248.87196479 106.10843701 251.30194039 108.04714331 253.75 110 C256.5625 112.625 256.5625 112.625 258.75 115 C258.75 115.66 258.75 116.32 258.75 117 C260.07 117.66 261.39 118.32 262.75 119 C262.75 119.66 262.75 120.32 262.75 121 C263.41 121 264.07 121 264.75 121 C266.16015625 122.3984375 266.16015625 122.3984375 267.8125 124.375 C270.49937105 127.54484167 273.24398472 130.63410845 276.0625 133.6875 C281.32134281 139.52472653 286.04980919 145.71496306 290.75 152 C291.41153076 152.87615967 291.41153076 152.87615967 292.08642578 153.77001953 C342.13759684 220.12614865 369.35333299 301.39631523 369.0625 384.4375 C369.05976578 386.06984589 369.05976578 386.06984589 369.05697632 387.73516846 C368.89657113 444.8780809 356.70669401 500.13289131 332.75 552 C332.04234719 553.56482323 331.33529187 555.12991683 330.62890625 556.6953125 C326.80051861 565.0944958 322.61353491 573.19818094 317.87011719 581.12646484 C317.08703717 582.43626346 316.30948323 583.74937466 315.53613281 585.06494141 C308.58837413 596.87719271 300.9579931 608.03051308 292.75 619 C292.30269531 619.60183105 291.85539063 620.20366211 291.39453125 620.82373047 C282.3519285 632.95820777 272.43748839 644.31446559 262.125 655.37890625 C259.70857833 657.97570971 259.70857833 657.97570971 257.5625 660.83984375 C256.964375 661.55269531 256.36625 662.26554688 255.75 663 C255.09 663 254.43 663 253.75 663 C253.48372803 663.59530518 253.21745605 664.19061035 252.94311523 664.80395508 C251.72164435 667.05219133 250.52655914 668.40533574 248.66015625 670.13671875 C248.04664307 670.70914307 247.43312988 671.28156738 246.80102539 671.87133789 C246.14481201 672.47067139 245.48859863 673.07000488 244.8125 673.6875 C244.13372803 674.31325928 243.45495605 674.93901855 242.75561523 675.58374023 C238.18317703 679.76861963 233.51937143 683.80287914 228.671875 687.66796875 C226.45175013 689.43991333 224.25960434 691.23232245 222.078125 693.05078125 C212.9800678 700.60647118 203.63190199 707.50827101 193.75 714 C192.94884766 714.53206055 192.14769531 715.06412109 191.32226562 715.61230469 C139.37362954 750 139.37362954 750 125.75 750 C125.42 750.99 125.09 751.98 124.75 753 C123.83992187 753.07734375 122.92984375 753.1546875 121.9921875 753.234375 C116.36456454 754.0419516 111.17009463 756.25888756 105.875 758.25 C96.92253857 761.55382995 87.97594104 764.56328827 78.78515625 767.125 C75.86278661 767.86779393 75.86278661 767.86779393 73.75 769 C72.13046449 769.30179536 70.50381425 769.56564005 68.875 769.8125 C65.14678412 770.40185497 61.45403545 771.04578002 57.7734375 771.87890625 C-13.33307062 787.7438759 -89.77719854 780.73050781 -157.85009766 755.86474609 C-162.92610226 754.03573202 -167.99901913 752.25555741 -173.25 751 C-172.92 750.34 -172.59 749.68 -172.25 749 C-172.98468506 748.87415527 -173.71937012 748.74831055 -174.47631836 748.61865234 C-177.10562627 748.03220166 -179.20247208 747.2497786 -181.62890625 746.1015625 C-182.45745117 745.7104126 -183.28599609 745.3192627 -184.13964844 744.91625977 C-185.02168945 744.49014404 -185.90373047 744.06402832 -186.8125 743.625 C-187.73708008 743.18019287 -188.66166016 742.73538574 -189.61425781 742.27709961 C-203.60411009 735.47112917 -217.13095592 728.03515345 -230.04785156 719.35180664 C-233.35824856 716.86851223 -233.35824856 716.86851223 -237.25 716 C-238.91666667 714.33333333 -240.58333333 712.66666667 -242.25 711 C-244.23809244 709.64897586 -246.23939767 708.31729118 -248.25 707 C-260.79364768 698.06084878 -272.26278371 687.92533748 -283.5546875 677.4765625 C-286.53414152 674.73891924 -289.57115014 672.0778241 -292.63671875 669.4375 C-294.25 668 -294.25 668 -296.5625 665.5625 C-298.23358097 663.66029598 -298.23358097 663.66029598 -301.25 664 C-301.31574219 663.45085938 -301.38148438 662.90171875 -301.44921875 662.3359375 C-302.59081681 659.00581242 -304.63354477 657.16167714 -307.0625 654.625 C-308.06826651 653.55643538 -309.0721016 652.48605029 -310.07421875 651.4140625 C-310.59677246 650.8562207 -311.11932617 650.29837891 -311.65771484 649.72363281 C-322.95204019 637.49763818 -332.76256807 624.24869949 -342.265625 610.61010742 C-342.99845703 609.56173706 -342.99845703 609.56173706 -343.74609375 608.4921875 C-344.39856079 607.55415283 -344.39856079 607.55415283 -345.06420898 606.59716797 C-346.2965732 604.85593948 -346.2965732 604.85593948 -348.25 603 C-349.04175823 601.51093891 -349.8102482 600.00940427 -350.5625 598.5 C-352.56702168 594.78246992 -352.56702168 594.78246992 -356.0625 592.4375 C-356.784375 592.293125 -357.50625 592.14875 -358.25 592 C-357.93083618 591.15791992 -357.93083618 591.15791992 -357.60522461 590.29882812 C-357.12610381 587.19820855 -358.02431996 585.92473986 -359.56640625 583.21875 C-360.08090332 582.29932617 -360.59540039 581.37990234 -361.12548828 580.43261719 C-361.96055908 578.98097168 -361.96055908 578.98097168 -362.8125 577.5 C-363.92742252 575.51654668 -365.04071797 573.53217785 -366.15234375 571.546875 C-366.68972168 570.59232422 -367.22709961 569.63777344 -367.78076172 568.65429688 C-370.06663591 564.52468168 -372.1324511 560.30710254 -374.1640625 556.046875 C-375.19785646 553.85664483 -375.19785646 553.85664483 -377.25 552 C-377.95656655 550.01374519 -378.61741325 548.01103915 -379.25 546 C-380.04417265 543.92151566 -380.85359837 541.84881443 -381.67578125 539.78125 C-382.14306641 538.60046875 -382.61035156 537.4196875 -383.09179688 536.203125 C-384.05994897 533.76538746 -385.02868362 531.32788118 -385.99804688 528.890625 C-389.25794569 520.6494581 -392.32164686 512.36352376 -395.25 504 C-395.91 504 -396.57 504 -397.25 504 C-397.20875 503.00484375 -397.1675 502.0096875 -397.125 500.984375 C-397.25544026 496.8265916 -398.07719854 493.20424278 -399.25 489.25 C-401.25 482.34459459 -401.25 482.34459459 -401.25 479 C-401.91 478.67 -402.57 478.34 -403.25 478 C-403.51353375 476.16390421 -403.76262432 474.32489591 -403.95019531 472.47949219 C-404.27862269 469.76328007 -404.78610224 467.12541858 -405.3359375 464.4453125 C-407.94326654 451.66625639 -410.03266659 439.00580622 -411.26123047 426.01416016 C-411.3645166 424.97694824 -411.46780273 423.93973633 -411.57421875 422.87109375 C-411.65760498 421.95255615 -411.74099121 421.03401855 -411.8269043 420.08764648 C-411.96652588 419.39872314 -412.10614746 418.7097998 -412.25 418 C-412.91 417.67 -413.57 417.34 -414.25 417 C-413.59 417 -412.93 417 -412.25 417 C-412.31928711 416.26096436 -412.38857422 415.52192871 -412.45996094 414.76049805 C-413.262698 405.43974941 -413.49169997 396.160534 -413.5 386.8125 C-413.50100708 386.01608093 -413.50201416 385.21966187 -413.50305176 384.39910889 C-413.48316694 360.82565899 -411.54926403 337.48060124 -407.01953125 314.32421875 C-406.54848975 311.90121366 -406.25197347 309.93238282 -406.32421875 307.45703125 C-406.22580547 304.19903362 -405.16568346 301.53874243 -404.08740234 298.47949219 C-402.66243428 294.26025729 -401.62832943 289.94627822 -400.5625 285.625 C-400.33755859 284.73683594 -400.11261719 283.84867187 -399.88085938 282.93359375 C-399.66880859 282.08152344 -399.45675781 281.22945313 -399.23828125 280.3515625 C-399.04790283 279.58666504 -398.85752441 278.82176758 -398.66137695 278.03369141 C-398.15086734 275.85573933 -398.15086734 275.85573933 -398.25 273 C-397.59 273 -396.93 273 -396.25 273 C-396.15710693 272.42459473 -396.06421387 271.84918945 -395.96850586 271.25634766 C-394.66861142 263.98643442 -392.40849664 257.27646658 -389.8125 250.375 C-389.37147949 249.19784424 -388.93045898 248.02068848 -388.47607422 246.80786133 C-375.20329387 211.95687821 -356.88977314 178.92648605 -333.25 150 C-332.52039063 149.08089844 -331.79078125 148.16179687 -331.0390625 147.21484375 C-326.19471847 141.17216199 -321.07071442 135.44525446 -315.8046875 129.7734375 C-313.73748759 127.52922965 -311.7296492 125.25814141 -309.75 122.9375 C-302.87006121 115.018146 -295.24747855 107.77586777 -287.25 101 C-285.78837312 99.75385275 -284.33000913 98.50386783 -282.875 97.25 C-282.22789062 96.69828125 -281.58078125 96.1465625 -280.9140625 95.578125 C-279.02599482 93.90452414 -279.02599482 93.90452414 -277.25 91 C-275.93563383 90.29667661 -274.60007835 89.63206857 -273.25 89 C-272.03653658 88.12839937 -270.84786619 87.22145257 -269.68359375 86.28515625 C-269.03326172 85.76373047 -268.38292969 85.24230469 -267.71289062 84.70507812 C-267.04451172 84.16302734 -266.37613281 83.62097656 -265.6875 83.0625 C-265.01525391 82.52431641 -264.34300781 81.98613281 -263.65039062 81.43164062 C-260.03355616 78.53815034 -260.03355616 78.53815034 -256.65087891 75.38134766 C-254.99102019 73.74463092 -253.343002 73.02181042 -251.25 72 C-249.42279163 70.75040679 -247.61251469 69.47595673 -245.8125 68.1875 C-187.15645143 27.12486959 -117.92340409 4.07188268 -46.625 -0.1875 C-45.54564682 -0.25209412 -45.54564682 -0.25209412 -44.44448853 -0.31799316 C-29.5420217 -1.18717045 -14.88369306 -0.96799226 0 0 Z "/>
  </g>
</svg>